<?xml version="1.0" standalone="no"?>
<!DOCTYPE svg PUBLIC "-//W3C//DTD SVG 20010904//EN"
 "http://www.w3.org/TR/2001/REC-SVG-20010904/DTD/svg10.dtd">
<svg version="1.0" xmlns="http://www.w3.org/2000/svg"
 width="1800.000000pt" height="1800.000000pt" viewBox="0 0 1800.000000 1800.000000"
 preserveAspectRatio="xMidYMid meet">
<metadata>
Created by potrace 1.14, written by Peter Selinger 2001-2017
</metadata>
<g transform="translate(0.000000,1800.000000) scale(0.100000,-0.100000)"
fill="#000000" stroke="none">
<path d="M14762 13809 c-600 -92 -1107 -518 -1296 -1089 -44 -134 -63 -228
-78 -385 -13 -146 -1 -330 32 -479 11 -49 18 -91 17 -93 -2 -1 -2271 -3 -5043
-3 -5538 -1 -5097 4 -5289 -61 -303 -104 -553 -341 -666 -634 -17 -44 -33 -86
-35 -95 -2 -8 -8 -33 -14 -55 -5 -22 -13 -62 -17 -90 -10 -63 -11 -4083 -1
-4145 14 -89 21 -116 50 -200 138 -387 453 -652 868 -729 50 -9 11354 -8
11415 2 388 58 723 328 861 694 14 37 28 75 30 83 15 57 33 152 38 190 2 25 5
934 5 2021 l1 1976 83 41 c455 226 787 673 871 1172 45 271 25 532 -60 790
-134 405 -426 741 -809 930 -154 76 -218 100 -375 137 -91 22 -133 25 -315 28
-115 2 -238 -1 -273 -6z"/>
</g>
</svg>
